<svg xmlns="http://www.w3.org/2000/svg" xmlns:xlink="http://www.w3.org/1999/xlink" width="18.284" height="16" viewBox="0 0 18.284 16">
  <defs>
    <clipPath id="clip-path">
      <rect id="Rectangle_4116" data-name="Rectangle 4116" width="18.284" height="16" fill="#0070c0"/>
    </clipPath>
  </defs>
  <g id="Group_18290" data-name="Group 18290" transform="translate(0 0)">
    <g id="Group_18289" data-name="Group 18289" transform="translate(0 0)" clip-path="url(#clip-path)">
      <path id="Path_24947" data-name="Path 24947" d="M7.858,16H7.844A8,8,0,1,1,16,8.157a.667.667,0,0,1-.667.654h-.013a.667.667,0,0,1-.653-.68,6.675,6.675,0,0,0-6.536-6.8A6.552,6.552,0,0,0,3.38,3.194,6.667,6.667,0,0,0,7.871,14.666.667.667,0,0,1,7.858,16" transform="translate(0 0)" fill="#0070c0"/>
      <path id="Path_24948" data-name="Path 24948" d="M13.8,11.484H9.278a.666.666,0,0,1-.667-.667v-5.7a.667.667,0,0,1,1.334,0v5.029H13.8a.667.667,0,1,1,0,1.334" transform="translate(-2.869 -1.485)" fill="#0070c0"/>
      <path id="Path_24949" data-name="Path 24949" d="M17.547,20.838H13.985v-.791q.452-.358.812-.677t.633-.605a3.544,3.544,0,0,0,.515-.658,1.175,1.175,0,0,0,.159-.583A.662.662,0,0,0,15.9,17a.817.817,0,0,0-.563-.181,1.29,1.29,0,0,0-.349.046,2.7,2.7,0,0,0-.334.117,2,2,0,0,0-.283.153l-.176.117H14.1V16.2a3.373,3.373,0,0,1,.641-.2,3.651,3.651,0,0,1,.84-.1,1.952,1.952,0,0,1,1.308.384,1.355,1.355,0,0,1,.444,1.081,1.889,1.889,0,0,1-.2.841,3.481,3.481,0,0,1-.671.884q-.293.29-.569.515c-.185.151-.318.258-.4.321h2.054Z" transform="translate(-4.66 -5.297)" fill="#0070c0"/>
      <path id="Path_24950" data-name="Path 24950" d="M23.8,19.756h-.654V20.9H21.966V19.756H19.834V18.85l2.093-2.813h1.215v2.846H23.8Zm-1.83-.873V17.232l-1.228,1.651Z" transform="translate(-6.609 -5.344)" fill="#0070c0"/>
      <path id="Path_24951" data-name="Path 24951" d="M21.525,12.639h0a.664.664,0,0,1-.471-.2l-2.282-2.282a.667.667,0,1,1,.943-.943l1.81,1.811,1.811-1.811a.667.667,0,0,1,.943.943L22,12.443a.664.664,0,0,1-.471.2" transform="translate(-6.19 -3.007)" fill="#0070c0"/>
    </g>
  </g>
</svg>
