<svg xmlns="http://www.w3.org/2000/svg" width="18.286" height="16" viewBox="0 0 18.286 16">
  <path id="car-solid" d="M4.829,35.05,3.9,37.714H14.389l-.932-2.664a1.144,1.144,0,0,0-1.079-.764H5.907A1.144,1.144,0,0,0,4.829,35.05ZM1.414,37.886,2.671,34.3A3.429,3.429,0,0,1,5.907,32h6.471a3.429,3.429,0,0,1,3.236,2.3l1.257,3.589A2.29,2.29,0,0,1,18.286,40v6.857A1.142,1.142,0,0,1,17.143,48H16a1.142,1.142,0,0,1-1.143-1.143V45.143H3.429v1.714A1.142,1.142,0,0,1,2.286,48H1.143A1.142,1.142,0,0,1,0,46.857V40A2.29,2.29,0,0,1,1.414,37.886Zm3.157,3.257a1.143,1.143,0,1,0-1.143,1.143A1.143,1.143,0,0,0,4.571,41.143Zm10.286,1.143a1.143,1.143,0,1,0-1.143-1.143A1.143,1.143,0,0,0,14.857,42.286Z" transform="translate(0 -32)" fill="#ef5a22"/>
</svg>
