<svg xmlns="http://www.w3.org/2000/svg" width="20" height="16" viewBox="0 0 20 16">
  <path id="plane-arrival-solid" d="M.009,5.216,0,2.125a.5.5,0,0,1,.609-.491l1.112.247a1,1,0,0,1,.719.625L3,4,6.978,5.175,5.681.637A.5.5,0,0,1,6.162,0H7.416a1,1,0,0,1,.872.509l3.406,6.056,3.35.991a4.021,4.021,0,0,1,1.366.713l1.075.862a1.242,1.242,0,0,1-.334,2.131,6.639,6.639,0,0,1-4.025.219L3.8,9.056a1.993,1.993,0,0,1-.916-.528L.3,5.919a1,1,0,0,1-.291-.7ZM1,14H19a1,1,0,0,1,0,2H1a1,1,0,0,1,0-2Zm3-2.5a1,1,0,1,1,1,1A1,1,0,0,1,4,11.5ZM8,11a1,1,0,1,1-1,1A1,1,0,0,1,8,11Z" fill="#0070c0"/>
</svg>
