<svg xmlns="http://www.w3.org/2000/svg" width="21.592" height="16" viewBox="0 0 21.592 16">
  <path id="plane-departure-solid" d="M12.854,40.343,6.278,37.876a2.16,2.16,0,0,0-1.724.091l-1.549.773a.541.541,0,0,0-.051.938l4.956,3.188-3.323,1.7-1.963-.874a1.074,1.074,0,0,0-.921.02l-1.086.543a.539.539,0,0,0-.169.833l2.466,2.878a1.083,1.083,0,0,0,.82.378H8.38a1.08,1.08,0,0,0,.482-.115l9.207-4.6a6.968,6.968,0,0,0,3.4-3.779,1.3,1.3,0,0,0-1.221-1.761H18.312a4.32,4.32,0,0,0-1.963.472ZM0,52.66a1.078,1.078,0,0,0,1.08,1.08H20.512a1.08,1.08,0,1,0,0-2.159H1.08A1.078,1.078,0,0,0,0,52.66Z" transform="translate(0 -37.739)" fill="#0070c0"/>
</svg>
