<svg xmlns="http://www.w3.org/2000/svg" width="18" height="16" viewBox="0 0 18 16">
  <path id="plane-solid" d="M15.072,6C16.141,6,18,6.906,18,8c0,1.125-1.859,2-2.928,2H11.428L8.288,15.5a1,1,0,0,1-.869.5H5.663a.5.5,0,0,1-.481-.637L6.713,10H3.5L2.15,11.8a.5.5,0,0,1-.4.2H.438A.437.437,0,0,1,0,11.563a.543.543,0,0,1,.016-.122L1,8,.016,4.559A.408.408,0,0,1,0,4.438.437.437,0,0,1,.438,4H1.75a.5.5,0,0,1,.4.2L3.5,6H6.716L5.184.637A.5.5,0,0,1,5.662,0H7.419a1,1,0,0,1,.869.5L11.428,6h3.644Z" fill="#ef5a22"/>
</svg>
