<svg xmlns="http://www.w3.org/2000/svg" width="14" height="16" viewBox="0 0 14 16">
  <path id="Intersection_1" data-name="Intersection 1" d="M12.413,16a1,1,0,0,1-.706-.294L10,14H6L4.29,15.706A.994.994,0,0,1,3.585,16H2.344a.35.35,0,0,1-.247-.6l1.437-1.438A3,3,0,0,1,1,11V3A3,3,0,0,1,4,0h8a3,3,0,0,1,3,3v8a3,3,0,0,1-2.534,2.965L13.9,15.4a.349.349,0,0,1-.247.6ZM6.7,9.75A1.5,1.5,0,1,0,8,9a1.5,1.5,0,0,0-1.3.75ZM3,3V6A1,1,0,0,0,4,7h8a1,1,0,0,0,1-1V3a1,1,0,0,0-1-1H4A1,1,0,0,0,3,3Z" transform="translate(-1)" fill="#ef5a22"/>
</svg>
